<!--?xml version="1.0" standalone="no"?-->
              <svg id="sw-js-blob-svg" viewBox="0 0 100 100" xmlns="http://www.w3.org/2000/svg" version="1.1">
                    <defs> 
                        <linearGradient id="sw-gradient" x1="0" x2="1" y1="1" y2="0">
                            <stop id="stop1" stop-color="rgba(160, 152, 157, 1)" offset="0%"></stop>
                            <stop id="stop2" stop-color="rgba(204.982, 199.123, 202.785, 1)" offset="100%"></stop>
                        </linearGradient>
                    </defs>
                <path fill="url(#sw-gradient)" d="M19.4,-25.8C23.8,-23.4,25.2,-16,24.7,-9.9C24.1,-3.7,21.7,1.3,21.8,9C21.9,16.6,24.5,27,21.3,34.1C18.1,41.3,9.1,45.1,1.6,42.9C-5.8,40.7,-11.6,32.3,-18.1,26.3C-24.7,20.2,-31.9,16.5,-36.4,10.1C-40.9,3.7,-42.7,-5.4,-39.3,-11.8C-35.9,-18.2,-27.3,-22,-19.9,-23.4C-12.5,-24.8,-6.2,-23.9,0.6,-24.7C7.5,-25.6,14.9,-28.2,19.4,-25.8Z" width="100%" height="100%" transform="translate(50 50)" stroke-width="0" style="transition: all 0.3s ease 0s;" stroke="url(#sw-gradient)"></path>
              </svg>